<?xml version="1.0" encoding="iso-8859-1"?>
<!-- Generator: Adobe Illustrator 17.1.0, SVG Export Plug-In . SVG Version: 6.00 Build 0)  -->
<!DOCTYPE svg PUBLIC "-//W3C//DTD SVG 1.1//EN" "http://www.w3.org/Graphics/SVG/1.1/DTD/svg11.dtd">
<svg version="1.1" id="Capa_1" xmlns="http://www.w3.org/2000/svg" xmlns:xlink="http://www.w3.org/1999/xlink" x="0px" y="0px"
	 viewBox="0 0 255.486 255.486" style="enable-background:new 0 0 255.486 255.486;" xml:space="preserve">
<g>
	<g>
		<path d="M227.782,79.792c-0.964-1.963-2.424-3.561-2.424-3.561l-72.9-72.899V3.33c0,0-2.054-1.927-3.807-2.525
			C146.581,0.098,144.419,0,144.419,0H48.066C36.339,0,26.798,9.541,26.798,21.268v212.95c0,11.727,9.541,21.268,21.269,21.268
			H207.42c11.729,0,21.268-9.541,21.268-21.268V84.269C228.688,84.269,228.598,81.454,227.782,79.792z M209.022,234.218
			c0,0.854-0.749,1.602-1.602,1.602H48.066c-0.854,0-1.603-0.749-1.603-1.602V21.268c0-0.853,0.749-1.603,1.603-1.603h101.062
			v41.367c0,10.189,8.338,18.528,18.529,18.528h41.365V234.218z"/>
	</g>
	<path d="M127.743,97.666c-32.969,0-59.79,26.822-59.79,59.79c0,32.969,26.821,59.79,59.79,59.79c32.969,0,59.79-26.822,59.79-59.79
		C187.533,124.488,160.712,97.666,127.743,97.666z M110.586,183.673l6.334-6.333v25.821c-2.174-0.515-4.288-1.181-6.334-1.986
		V183.673z M102.045,196.752c-0.909-0.597-1.798-1.22-2.662-1.876l2.662-2.661V196.752z M146.67,163.862v36.577
		c-2.04,0.901-4.155,1.66-6.334,2.267v-38.844H146.67z M174.272,163.862c-0.675,4.925-2.105,9.614-4.188,13.934v-13.934H174.272z
		 M80.765,157.456c0-23.73,17.689-43.394,40.571-46.529v43.875l-31.014,31.015C84.331,177.929,80.765,168.103,80.765,157.456z
		 M125.461,204.376v-35.578l4.936-4.937h1.398v40.386c-1.337,0.115-2.686,0.186-4.052,0.186
		C126.977,204.434,126.217,204.413,125.461,204.376z M155.211,195.531v-31.669h6.333v26.169
		C159.601,192.046,157.482,193.888,155.211,195.531z"/>
</g>
<g>
</g>
<g>
</g>
<g>
</g>
<g>
</g>
<g>
</g>
<g>
</g>
<g>
</g>
<g>
</g>
<g>
</g>
<g>
</g>
<g>
</g>
<g>
</g>
<g>
</g>
<g>
</g>
<g>
</g>
</svg>
